<svg xmlns="http://www.w3.org/2000/svg" width="30" height="30" viewBox="0 0 30 30" fill="none">
<circle cx="14.5522" cy="14.5503" r="14.5522" fill="#082C4B"/>
<rect x="9.4209" y="8.73633" width="10.7349" height="11.6053" fill="white"/>
<path d="M8.26074 7.86523V20.5667H20.9501V7.86523H8.26074ZM19.3668 19.551H16.7938V13.5418C16.7938 12.9839 16.572 12.4489 16.1772 12.0544C15.7824 11.66 15.247 11.4384 14.6887 11.4384C14.1303 11.4384 13.5949 11.66 13.2001 12.0544C12.8053 12.4489 12.5835 12.9839 12.5835 13.5418V19.5599H9.99704V13.5418C10.0348 12.3254 10.5449 11.1715 11.4194 10.3244C12.2938 9.4773 13.4639 9.00359 14.6819 9.00359C15.8999 9.00359 17.07 9.4773 17.9445 10.3244C18.8189 11.1715 19.329 12.3254 19.3668 13.5418V19.551Z" fill="#082C4B"/>
</svg>